<svg width="18" height="17" viewBox="0 0 18 17" fill="none" xmlns="http://www.w3.org/2000/svg">
<path fill-rule="evenodd" clip-rule="evenodd" d="M11.4286 7.6828V2.56093L8.57143 0L5.71428 2.56093V4.26822H0V16.2192H17.1429V7.6828H11.4286ZM3.80952 14.512H1.90476V12.8047H3.80952V14.512ZM3.80952 11.0974H1.90476V9.39009H3.80952V11.0974ZM3.80952 7.6828H1.90476V5.97551H3.80952V7.6828ZM9.52381 14.512H7.61905V12.8047H9.52381V14.512ZM9.52381 11.0974H7.61905V9.39009H9.52381V11.0974ZM9.52381 7.6828H7.61905V5.97551H9.52381V7.6828ZM9.52381 4.26822H7.61905V2.56093H9.52381V4.26822ZM15.2381 14.512H13.3333V12.8047H15.2381V14.512ZM15.2381 11.0974H13.3333V9.39009H15.2381V11.0974Z" fill="white"/>
</svg>
