<svg width="29" height="25" viewBox="0 0 29 25" fill="none" xmlns="http://www.w3.org/2000/svg">
<path d="M11.7222 13.3333H16.7222V14.9999H11.7222V13.3333Z" fill="#F2C64D"/>
<path d="M23.0766 15H18.3889V15.8333C18.3889 16.2938 18.0161 16.6666 17.5556 16.6666H10.8889C10.4284 16.6666 10.0556 16.2938 10.0556 15.8333V15H5.36784C4.29036 15 3.33746 14.3131 2.99631 13.291L0 4.30054V22.5C0 23.8784 1.12153 25 2.5 25H25.9444C27.3229 25 28.4444 23.8784 28.4444 22.5V4.30119L25.4479 13.291C25.107 14.3131 24.1541 15 23.0766 15Z" fill="#F2C64D"/>
<path d="M17.5556 0H10.8889C9.51041 0 8.38889 1.12153 8.38889 2.5V3.33333H1.43381L4.57682 12.7637C4.69075 13.1046 5.00889 13.3333 5.36784 13.3333H10.0556V12.5C10.0556 12.0395 10.4284 11.6667 10.8889 11.6667H17.5556C18.0161 11.6667 18.3889 12.0395 18.3889 12.5V13.3333H23.0766C23.4355 13.3333 23.7537 13.1046 23.8676 12.7637L27.0108 3.33333H20.0556V2.5C20.0556 1.12153 18.934 0 17.5556 0ZM10.0556 3.33333V2.5C10.0556 2.04015 10.429 1.66667 10.8889 1.66667H17.5556C18.0154 1.66667 18.3889 2.04015 18.3889 2.5V3.33333H10.0556Z" fill="#F2C64D"/>
</svg>
