<svg width="30" height="25" viewBox="0 0 30 25" fill="none" xmlns="http://www.w3.org/2000/svg">
<path d="M29.3862 5.0277L15.2782 0.050051C15.0892 -0.0166837 14.883 -0.0166837 14.6939 0.050051L0.585978 5.0277C0.235211 5.15145 0.000469016 5.48278 7.01711e-07 5.85474C-0.000467612 6.2267 0.233514 6.55856 0.583988 6.68313L14.6919 11.6986C14.7871 11.7324 14.8866 11.7494 14.986 11.7494C15.0856 11.7494 15.185 11.7324 15.2801 11.6986L29.3881 6.68313C29.7386 6.55856 29.9725 6.2267 29.9721 5.85474C29.9716 5.48278 29.7369 5.15145 29.3862 5.0277Z" fill="#F2C64D"/>
<path d="M27.8631 16.7484V9.08911L26.1069 9.71343V16.7484C25.5779 17.0528 25.2215 17.6233 25.2215 18.2775C25.2215 18.9316 25.5779 19.5021 26.1069 19.8066V24.1219C26.1069 24.6068 26.5001 25 26.985 25C27.4699 25 27.8631 24.6068 27.8631 24.1219V19.8066C28.392 19.5022 28.7485 18.9317 28.7485 18.2775C28.7485 17.6234 28.3921 17.0528 27.8631 16.7484Z" fill="#F2C64D"/>
<path d="M14.986 13.5056C14.6846 13.5056 14.3878 13.4543 14.1037 13.3534L6.17261 10.5338V14.3979C6.17261 15.3432 7.15882 16.1427 9.10384 16.774C10.7992 17.3242 12.8882 17.6273 14.986 17.6273C17.0839 17.6273 19.1728 17.3242 20.8682 16.774C22.8133 16.1427 23.7995 15.3432 23.7995 14.3979V10.5338L15.8685 13.3534C15.5843 13.4543 15.2875 13.5056 14.986 13.5056Z" fill="#F2C64D"/>
</svg>
