<svg width="25" height="25" viewBox="0 0 25 25" fill="none" xmlns="http://www.w3.org/2000/svg">
<path d="M19.873 17.4316C18.3249 17.4316 17.0654 16.1722 17.0654 14.624C17.0654 13.0759 18.3249 11.8164 19.873 11.8164C21.4212 11.8164 22.6807 13.0759 22.6807 14.624C22.6807 16.1722 21.4212 17.4316 19.873 17.4316Z" fill="#F2C64D"/>
<path d="M5.12695 17.4316C3.57881 17.4316 2.31934 16.1722 2.31934 14.624C2.31934 13.0759 3.57881 11.8164 5.12695 11.8164C6.6751 11.8164 7.93457 13.0759 7.93457 14.624C7.93457 16.1722 6.6751 17.4316 5.12695 17.4316Z" fill="#F2C64D"/>
<path d="M17.3828 1.95312C16.4573 1.95312 15.6252 1.43887 15.2113 0.611133L15.1083 0.404932C14.9842 0.156738 14.7306 0 14.4531 0H10.5469C10.2694 0 10.0158 0.156738 9.89175 0.404883L9.78867 0.611035C9.3748 1.43887 8.54272 1.95312 7.61719 1.95312C7.2127 1.95312 6.88477 2.28105 6.88477 2.68555V6.86509C6.88477 8.50835 7.40327 10.0738 8.38418 11.3922C9.36509 12.7106 10.7156 13.6571 12.2896 14.1292C12.3582 14.1499 12.4291 14.1602 12.5 14.1602C12.5709 14.1602 12.6418 14.1499 12.7104 14.1292C14.2844 13.6571 15.6349 12.7106 16.6158 11.3922C17.5967 10.0738 18.1152 8.50835 18.1152 6.86509V2.68555C18.1152 2.28105 17.7873 1.95312 17.3828 1.95312ZM15.0895 6.21689L12.3274 8.979C12.1844 9.12202 11.9969 9.19355 11.8095 9.19355C11.6221 9.19355 11.4346 9.12207 11.2917 8.979L9.9106 7.59795C9.62456 7.31191 9.62456 6.84819 9.9106 6.56216C10.1966 6.27612 10.6604 6.27612 10.9464 6.56216L11.8096 7.42529L14.0538 5.1811C14.3398 4.89507 14.8036 4.89507 15.0896 5.1811C15.3755 5.46714 15.3755 5.93086 15.0895 6.21689Z" fill="#F2C64D"/>
<path d="M22.8682 17.6677C22.0965 18.4271 21.0387 18.8965 19.8731 18.8965C18.7056 18.8965 17.6461 18.4257 16.8742 17.6641C16.4645 17.9593 16.0998 18.3133 15.7934 18.715L16.1958 19.0675C17.4156 20.1359 18.1152 21.6753 18.1152 23.2911V25H24.2676C24.6721 25 25 24.6721 25 24.2676V21.8262C25 20.1165 24.1586 18.5997 22.8682 17.6677Z" fill="#F2C64D"/>
<path d="M2.13184 17.6677C0.841455 18.5997 0 20.1165 0 21.8262V24.2676C0 24.6721 0.32793 25 0.732422 25H6.88477V23.2911C6.88477 21.6753 7.58437 20.1359 8.8042 19.0675L9.20664 18.715C8.90024 18.3133 8.53555 17.9593 8.12578 17.6641C7.35386 18.4257 6.29443 18.8965 5.12695 18.8965C3.96133 18.8965 2.90347 18.4271 2.13184 17.6677Z" fill="#F2C64D"/>
<path d="M15.2307 20.1694C14.5414 20.8887 13.5725 21.3379 12.5 21.3379C11.4275 21.3379 10.4586 20.8887 9.76934 20.1694C8.9001 20.9308 8.34961 22.0475 8.34961 23.291V25H16.6504V23.291C16.6504 22.0475 16.0999 20.9308 15.2307 20.1694Z" fill="#F2C64D"/>
<path d="M12.5 19.873C11.2211 19.873 10.1807 18.8326 10.1807 17.5537C10.1807 16.2748 11.2211 15.2344 12.5 15.2344C13.7789 15.2344 14.8193 16.2748 14.8193 17.5537C14.8193 18.8326 13.7789 19.873 12.5 19.873Z" fill="#F2C64D"/>
</svg>
