<svg width="26" height="25" viewBox="0 0 26 25" fill="none" xmlns="http://www.w3.org/2000/svg">
<path d="M23.8647 22.7266H1.13671C0.508759 22.7266 1.52588e-05 23.2353 1.52588e-05 23.8638C1.52588e-05 24.4912 0.508759 24.9999 1.13671 24.9999H23.8641C24.4921 24.9999 25.0008 24.4912 25.0008 23.8638C25.0003 23.2353 24.4915 22.7266 23.8647 22.7266Z" fill="#F2C64D"/>
<path d="M2.55704 19.7715C1.92909 19.7715 1.42035 20.2803 1.42035 20.9082C1.42035 21.5362 1.92909 22.0455 2.55704 22.0455H22.4438C23.0717 22.0455 23.5805 21.5362 23.5805 20.9082C23.5805 20.2803 23.0717 19.7715 22.4438 19.7715H22.1602V9.54346H22.4438C22.7583 9.54346 23.0116 9.28909 23.0116 8.97565C23.0116 8.66221 22.7572 8.40784 22.4438 8.40784H2.55704C2.24307 8.40784 1.98923 8.66221 1.98923 8.97565C1.98923 9.28909 2.2436 9.54346 2.55704 9.54346H2.84121V19.771H2.55704V19.7715ZM19.8868 9.54346V19.771H16.4778V9.54346H19.8868ZM14.2044 9.54346V19.771H10.7954V9.54346H14.2044ZM5.11353 9.54346H8.52253V19.771H5.11353V9.54346Z" fill="#F2C64D"/>
<path d="M1.13671 7.38609H23.8641C23.8679 7.38609 23.8721 7.38609 23.8753 7.38609C24.5038 7.38609 25.012 6.87735 25.012 6.2494C25.012 5.75024 24.6906 5.32717 24.2441 5.17391L12.9677 0.0997797C12.6712 -0.0332599 12.3323 -0.0332599 12.0353 0.0997797L0.670541 5.21329C0.181488 5.4336 -0.0872524 5.9647 0.0255652 6.48834C0.137851 7.01198 0.600828 7.38609 1.13671 7.38609Z" fill="#F2C64D"/>
</svg>
