<svg width="15" height="15" viewBox="0 0 15 15" fill="none" xmlns="http://www.w3.org/2000/svg">
<path d="M8.93555 7.5C8.93555 8.29285 8.29285 8.93555 7.5 8.93555C6.70715 8.93555 6.06445 8.29285 6.06445 7.5C6.06445 6.70715 6.70715 6.06445 7.5 6.06445C8.29285 6.06445 8.93555 6.70715 8.93555 7.5Z" fill="#F2C64D"/>
<path d="M10.8572 4.9602C10.7882 4.7732 10.6781 4.60394 10.5351 4.46501C10.3962 4.32196 10.227 4.21187 10.0399 4.14286C9.88815 4.08392 9.66019 4.01377 9.2403 3.99466C8.78609 3.97395 8.6499 3.96948 7.5 3.96948C6.34998 3.96948 6.2138 3.97383 5.7597 3.99454C5.33981 4.01377 5.11173 4.08392 4.9601 4.14286C4.77299 4.21187 4.60373 4.32196 4.46491 4.46501C4.32186 4.60394 4.21177 4.77309 4.14265 4.9602C4.08371 5.11195 4.01356 5.34003 3.99445 5.75991C3.97373 6.21401 3.96927 6.3502 3.96927 7.50021C3.96927 8.65012 3.97373 8.7863 3.99445 9.24052C4.01356 9.6604 4.08371 9.88837 4.14265 10.0401C4.21177 10.2272 4.32175 10.3964 4.4648 10.5353C4.60373 10.6784 4.77287 10.7884 4.95998 10.8575C5.11173 10.9165 5.33981 10.9867 5.7597 11.0058C6.2138 11.0265 6.34987 11.0308 7.49989 11.0308C8.65002 11.0308 8.7862 11.0265 9.24019 11.0058C9.66007 10.9867 9.88815 10.9165 10.0399 10.8575C10.4155 10.7126 10.7124 10.4157 10.8572 10.0401C10.9162 9.88837 10.9863 9.6604 11.0056 9.24052C11.0263 8.7863 11.0306 8.65012 11.0306 7.50021C11.0306 6.3502 11.0263 6.21401 11.0056 5.75991C10.9864 5.34003 10.9163 5.11195 10.8572 4.9602ZM7.5 9.71156C6.27857 9.71156 5.28843 8.72153 5.28843 7.5001C5.28843 6.27867 6.27857 5.28864 7.5 5.28864C8.72131 5.28864 9.71146 6.27867 9.71146 7.5001C9.71146 8.72153 8.72131 9.71156 7.5 9.71156ZM9.79889 5.71803C9.51347 5.71803 9.28207 5.48663 9.28207 5.20121C9.28207 4.91579 9.51347 4.68439 9.79889 4.68439C10.0843 4.68439 10.3157 4.91579 10.3157 5.20121C10.3156 5.48663 10.0843 5.71803 9.79889 5.71803Z" fill="#F2C64D"/>
<path d="M7.5 0C3.3585 0 0 3.3585 0 7.5C0 11.6415 3.3585 15 7.5 15C11.6415 15 15 11.6415 15 7.5C15 3.3585 11.6415 0 7.5 0ZM11.7807 9.27555C11.7598 9.734 11.6869 10.047 11.5805 10.321C11.3568 10.8995 10.8995 11.3568 10.321 11.5805C10.0471 11.6869 9.734 11.7597 9.27567 11.7807C8.81641 11.8016 8.6697 11.8066 7.50011 11.8066C6.33041 11.8066 6.18382 11.8016 5.72445 11.7807C5.26611 11.7597 4.953 11.6869 4.67915 11.5805C4.39167 11.4724 4.13143 11.3029 3.91628 11.0837C3.69724 10.8687 3.52776 10.6083 3.41961 10.321C3.31318 10.0471 3.24028 9.734 3.21945 9.27567C3.19828 8.8163 3.19336 8.66959 3.19336 7.5C3.19336 6.33041 3.19828 6.1837 3.21934 5.72445C3.24017 5.266 3.31295 4.953 3.41938 4.67903C3.52753 4.39167 3.69713 4.13132 3.91628 3.91628C4.13132 3.69713 4.39167 3.52764 4.67903 3.41949C4.953 3.31306 5.266 3.24028 5.72445 3.21934C6.1837 3.19839 6.33041 3.19336 7.5 3.19336C8.66959 3.19336 8.8163 3.19839 9.27555 3.21945C9.734 3.24028 10.047 3.31306 10.321 3.41938C10.6083 3.52753 10.8687 3.69713 11.0838 3.91628C11.3029 4.13143 11.4725 4.39167 11.5805 4.67903C11.687 4.953 11.7598 5.266 11.7808 5.72445C11.8017 6.1837 11.8066 6.33041 11.8066 7.5C11.8066 8.66959 11.8017 8.8163 11.7807 9.27555Z" fill="#F2C64D"/>
</svg>
