<svg width="118" height="22" viewBox="0 0 118 22" fill="none" xmlns="http://www.w3.org/2000/svg">
<path d="M3.048 3.16C3.048 2.712 2.984 2.352 2.856 2.08C2.744 1.808 2.576 1.592 2.352 1.432C2.144 1.256 1.888 1.128 1.584 1.048C1.28 0.952 0.936 0.88 0.552 0.831999V0.256C1.992 0.351999 3.44 0.399999 4.896 0.399999C6.368 0.399999 7.848 0.351999 9.336 0.256V0.831999C8.968 0.88 8.6 0.952 8.232 1.048C7.864 1.128 7.536 1.256 7.248 1.432C6.96 1.592 6.72 1.808 6.528 2.08C6.352 2.352 6.264 2.712 6.264 3.16V15.016C6.488 15.08 6.8 15.128 7.2 15.16C7.6 15.176 8.032 15.184 8.496 15.184C9.392 15.184 10.176 15.096 10.848 14.92C11.52 14.744 12.128 14.472 12.672 14.104C13.216 13.72 13.704 13.248 14.136 12.688C14.568 12.112 14.984 11.44 15.384 10.672L15.984 10.936C15.568 11.768 15.2 12.616 14.88 13.48C14.576 14.328 14.312 15.2 14.088 16.096C12.984 16.064 11.872 16.04 10.752 16.024C9.648 16.008 8.544 16 7.44 16C6.288 16 5.128 16.008 3.96 16.024C2.808 16.04 1.656 16.064 0.504 16.096V15.52C0.824 15.52 1.136 15.504 1.44 15.472C1.744 15.44 2.016 15.368 2.256 15.256C2.496 15.128 2.688 14.952 2.832 14.728C2.976 14.504 3.048 14.2 3.048 13.816V3.16ZM19.1278 13.36C19.1278 13.856 19.2718 14.248 19.5598 14.536C19.8478 14.808 20.2478 14.944 20.7598 14.944C21.0478 14.944 21.3278 14.896 21.5998 14.8C21.8878 14.704 22.1438 14.552 22.3678 14.344C22.3518 14.12 22.3358 13.912 22.3198 13.72C22.3198 13.528 22.3198 13.328 22.3198 13.12C22.3198 12.896 22.3198 12.68 22.3198 12.472C22.3358 12.264 22.3518 12.048 22.3678 11.824C22.1438 11.792 21.9278 11.768 21.7198 11.752C21.5278 11.736 21.3198 11.728 21.0958 11.728C20.6158 11.728 20.1678 11.864 19.7518 12.136C19.3358 12.408 19.1278 12.816 19.1278 13.36ZM22.3678 9.184C22.3678 8.096 21.9838 7.552 21.2158 7.552C20.9438 7.552 20.7198 7.6 20.5438 7.696C20.3838 7.792 20.2558 7.92 20.1598 8.08C20.0798 8.224 20.0238 8.392 19.9918 8.584C19.9598 8.776 19.9438 8.96 19.9438 9.136C19.9438 9.296 19.9438 9.432 19.9438 9.544C19.9598 9.64 19.9758 9.728 19.9918 9.808C19.3998 9.68 18.8478 9.56 18.3358 9.448C17.8238 9.336 17.3038 9.24 16.7758 9.16C16.8398 8.648 16.9998 8.232 17.2558 7.912C17.5118 7.576 17.8238 7.32 18.1918 7.144C18.5758 6.952 18.9918 6.824 19.4398 6.76C19.8878 6.68 20.3278 6.64 20.7598 6.64C21.2718 6.64 21.7918 6.688 22.3198 6.784C22.8478 6.864 23.3198 7.016 23.7358 7.24C24.1678 7.448 24.5198 7.736 24.7918 8.104C25.0638 8.456 25.1998 8.904 25.1998 9.448C25.1998 9.736 25.1918 10.056 25.1758 10.408C25.1598 10.76 25.1438 11.112 25.1278 11.464C25.1278 11.8 25.1198 12.128 25.1038 12.448C25.0878 12.752 25.0798 13.008 25.0798 13.216C25.0798 13.568 25.1438 13.888 25.2718 14.176C25.3998 14.464 25.6718 14.608 26.0878 14.608C26.3598 14.608 26.5998 14.536 26.8078 14.392C27.0318 14.248 27.2398 14.088 27.4318 13.912L27.8158 14.344C27.6238 14.504 27.4078 14.704 27.1678 14.944C26.9438 15.184 26.7038 15.408 26.4478 15.616C26.2078 15.824 25.9518 16 25.6798 16.144C25.4078 16.304 25.1278 16.384 24.8398 16.384C24.4398 16.384 24.0478 16.24 23.6638 15.952C23.2798 15.664 22.9518 15.384 22.6798 15.112C22.0878 15.48 21.4638 15.784 20.8078 16.024C20.1518 16.264 19.4718 16.384 18.7678 16.384C18.4318 16.384 18.0958 16.328 17.7598 16.216C17.4398 16.104 17.1518 15.952 16.8958 15.76C16.6398 15.552 16.4318 15.312 16.2718 15.04C16.1278 14.768 16.0558 14.48 16.0558 14.176C16.0558 13.408 16.2638 12.816 16.6798 12.4C17.0958 11.968 17.6158 11.648 18.2398 11.44C18.8798 11.216 19.5678 11.08 20.3038 11.032C21.0398 10.984 21.7278 10.96 22.3678 10.96V9.184ZM26.7465 6.928C27.3225 6.96 27.8905 6.984 28.4505 7C29.0265 7.016 29.6025 7.024 30.1785 7.024C30.6745 7.024 31.1625 7.016 31.6425 7C32.1225 6.984 32.6105 6.96 33.1065 6.928V7.408C32.9625 7.424 32.8105 7.456 32.6505 7.504C32.5065 7.536 32.3705 7.592 32.2425 7.672C32.1145 7.736 32.0025 7.832 31.9065 7.96C31.8265 8.072 31.7865 8.216 31.7865 8.392C31.7865 8.552 31.8745 8.872 32.0505 9.352C32.2265 9.816 32.4185 10.32 32.6265 10.864C32.8505 11.408 33.0665 11.928 33.2745 12.424C33.4985 12.92 33.6425 13.264 33.7065 13.456L35.8185 9.088C35.6105 8.688 35.3545 8.328 35.0505 8.008C34.7625 7.672 34.3785 7.488 33.8985 7.456V6.928C34.4105 6.96 34.9145 6.984 35.4105 7C35.9225 7.016 36.4345 7.024 36.9465 7.024C37.4105 7.024 37.8745 7.016 38.3385 7C38.8025 6.984 39.2665 6.96 39.7305 6.928V7.408C39.5865 7.408 39.4345 7.416 39.2745 7.432C39.1305 7.448 38.9865 7.496 38.8425 7.576C38.7145 7.64 38.6105 7.736 38.5305 7.864C38.4505 7.976 38.4105 8.136 38.4105 8.344C38.4105 8.552 38.4825 8.864 38.6265 9.28C38.7705 9.68 38.9465 10.128 39.1545 10.624C39.3625 11.104 39.5705 11.6 39.7785 12.112C40.0025 12.624 40.1865 13.088 40.3305 13.504C40.4585 13.264 40.6345 12.92 40.8585 12.472C41.0825 12.008 41.3065 11.536 41.5305 11.056C41.7545 10.56 41.9465 10.096 42.1065 9.664C42.2665 9.216 42.3465 8.888 42.3465 8.68C42.3465 8.312 42.2025 8.016 41.9145 7.792C41.6425 7.552 41.3225 7.424 40.9545 7.408V6.928C41.3225 6.96 41.6905 6.984 42.0585 7C42.4265 7.016 42.7945 7.024 43.1625 7.024C43.5305 7.024 43.8985 7.016 44.2665 7C44.6345 6.984 45.0025 6.96 45.3705 6.928V7.408C45.1145 7.456 44.8825 7.528 44.6745 7.624C44.4825 7.704 44.2825 7.864 44.0745 8.104C43.8665 8.328 43.6425 8.64 43.4025 9.04C43.1625 9.424 42.8825 9.944 42.5625 10.6C42.2425 11.24 41.8745 12.032 41.4585 12.976C41.0425 13.904 40.5465 15.024 39.9705 16.336H38.7945L36.2025 10L33.1785 16.336H32.1225C31.3545 14.384 30.7305 12.84 30.2505 11.704C29.7705 10.552 29.3465 9.68 28.9785 9.088C28.6105 8.48 28.2585 8.072 27.9225 7.864C27.5865 7.656 27.1945 7.504 26.7465 7.408V6.928ZM44.7036 6.928C45.3116 6.96 45.9036 6.984 46.4796 7C47.0716 7.016 47.6716 7.024 48.2796 7.024C48.7916 7.024 49.2956 7.016 49.7916 7C50.2876 6.984 50.7916 6.96 51.3036 6.928V7.408C50.9676 7.456 50.6476 7.584 50.3436 7.792C50.0556 7.984 49.9116 8.288 49.9116 8.704C49.9116 9.008 50.0156 9.432 50.2236 9.976C50.4316 10.52 50.6716 11.096 50.9436 11.704C51.2156 12.296 51.4876 12.872 51.7596 13.432C52.0316 13.992 52.2316 14.44 52.3596 14.776C52.4876 14.456 52.6876 14.008 52.9596 13.432C53.2316 12.84 53.5036 12.232 53.7756 11.608C54.0636 10.984 54.3116 10.392 54.5196 9.832C54.7436 9.272 54.8556 8.856 54.8556 8.584C54.8556 8.152 54.7116 7.848 54.4236 7.672C54.1356 7.496 53.7996 7.408 53.4156 7.408V6.928C53.8316 6.96 54.2476 6.984 54.6636 7C55.0956 7.016 55.5196 7.024 55.9356 7.024C56.3036 7.024 56.6636 7.016 57.0156 7C57.3836 6.984 57.7516 6.96 58.1196 6.928V7.408C57.6076 7.408 57.1436 7.624 56.7276 8.056C56.3276 8.488 55.9196 9.176 55.5036 10.12C55.2636 10.648 54.9276 11.336 54.4956 12.184C54.0796 13.032 53.6236 13.912 53.1276 14.824C52.6476 15.72 52.1676 16.592 51.6876 17.44C51.2236 18.288 50.8236 18.976 50.4876 19.504C50.0076 20.272 49.4236 20.88 48.7356 21.328C48.0476 21.776 47.2236 22 46.2636 22C45.9756 22 45.6716 21.944 45.3516 21.832C45.0476 21.736 44.7676 21.592 44.5116 21.4C44.2556 21.208 44.0476 20.968 43.8876 20.68C43.7116 20.408 43.6236 20.096 43.6236 19.744C43.6236 19.264 43.7676 18.856 44.0556 18.52C44.3436 18.184 44.7436 18.016 45.2556 18.016C45.6556 18.016 45.9916 18.144 46.2636 18.4C46.5516 18.656 46.6956 18.984 46.6956 19.384C46.6956 19.528 46.6796 19.672 46.6476 19.816C46.6156 19.96 46.5996 20.104 46.5996 20.248C46.5996 20.504 46.7036 20.664 46.9116 20.728C47.1196 20.808 47.3276 20.848 47.5356 20.848C47.8716 20.848 48.1996 20.712 48.5196 20.44C48.8556 20.168 49.1596 19.848 49.4316 19.48C49.7036 19.112 49.9516 18.728 50.1756 18.328C50.3996 17.928 50.5756 17.6 50.7036 17.344L47.0796 9.4C46.8396 8.856 46.5436 8.408 46.1916 8.056C45.8396 7.704 45.3436 7.488 44.7036 7.408V6.928ZM64.5782 10.576C64.8982 10.576 65.1142 10.536 65.2262 10.456C65.3382 10.376 65.3942 10.192 65.3942 9.904C65.3942 9.2 65.2502 8.632 64.9622 8.2C64.6742 7.768 64.1782 7.552 63.4742 7.552C63.1062 7.552 62.7942 7.656 62.5382 7.864C62.2982 8.056 62.0982 8.304 61.9382 8.608C61.7942 8.912 61.6902 9.24 61.6262 9.592C61.5622 9.944 61.5302 10.272 61.5302 10.576H64.5782ZM61.5302 11.488C61.5302 12.496 61.8102 13.328 62.3702 13.984C62.9462 14.624 63.7542 14.944 64.7942 14.944C65.3542 14.944 65.8982 14.824 66.4262 14.584C66.9702 14.344 67.4262 14 67.7942 13.552L68.3702 14.176C67.7462 14.88 67.0182 15.424 66.1862 15.808C65.3542 16.192 64.4822 16.384 63.5702 16.384C62.7862 16.384 62.0822 16.264 61.4582 16.024C60.8342 15.8 60.2982 15.48 59.8502 15.064C59.4022 14.632 59.0582 14.12 58.8182 13.528C58.5782 12.92 58.4582 12.248 58.4582 11.512C58.4582 10.776 58.5782 10.112 58.8182 9.52C59.0582 8.912 59.4022 8.4 59.8502 7.984C60.2982 7.552 60.8342 7.224 61.4582 7C62.0822 6.76 62.7862 6.64 63.5702 6.64C64.3382 6.64 65.0102 6.768 65.5862 7.024C66.1782 7.264 66.6742 7.608 67.0742 8.056C67.4902 8.488 67.8102 9 68.0342 9.592C68.2582 10.184 68.4022 10.816 68.4662 11.488H61.5302ZM73.7676 13.936C73.7676 14.512 73.9436 14.928 74.2956 15.184C74.6476 15.44 75.2556 15.584 76.1196 15.616V16.096C75.5596 16.064 74.9996 16.04 74.4396 16.024C73.8796 16.008 73.3196 16 72.7596 16C72.1996 16 71.6396 16.008 71.0796 16.024C70.5196 16.04 69.9596 16.064 69.3996 16.096V15.616C69.9276 15.584 70.3356 15.44 70.6236 15.184C70.9276 14.928 71.0796 14.512 71.0796 13.936V9.184C71.0796 8.608 70.9276 8.192 70.6236 7.936C70.3356 7.68 69.9276 7.536 69.3996 7.504V7.024C69.6236 7.024 69.9356 7.008 70.3356 6.976C70.7516 6.928 71.1756 6.88 71.6076 6.832C72.0556 6.784 72.4716 6.736 72.8556 6.688C73.2556 6.624 73.5596 6.576 73.7676 6.544V8.224C74.0396 8 74.3116 7.776 74.5836 7.552C74.8556 7.328 75.1356 7.128 75.4236 6.952C75.7116 6.76 76.0156 6.608 76.3356 6.496C76.6556 6.368 76.9996 6.304 77.3676 6.304C77.9596 6.304 78.3676 6.488 78.5916 6.856C78.8316 7.224 78.9516 7.768 78.9516 8.488C78.7596 8.584 78.5276 8.696 78.2556 8.824C77.9996 8.936 77.7356 9.056 77.4636 9.184C77.2076 9.296 76.9596 9.416 76.7196 9.544C76.4956 9.656 76.3116 9.752 76.1676 9.832L75.8796 9.64C75.9916 9.56 76.1196 9.448 76.2636 9.304C76.4236 9.144 76.5036 8.984 76.5036 8.824C76.5036 8.536 76.4156 8.328 76.2396 8.2C76.0796 8.056 75.8636 7.984 75.5916 7.984C75.4796 7.984 75.3356 8.024 75.1596 8.104C74.9996 8.168 74.8316 8.256 74.6556 8.368C74.4796 8.464 74.3116 8.584 74.1516 8.728C73.9916 8.856 73.8636 8.984 73.7676 9.112V13.936ZM85.9727 0.256C87.3647 0.351999 88.7647 0.399999 90.1727 0.399999C91.5967 0.399999 93.0127 0.351999 94.4207 0.256L94.3487 0.831999C93.7567 0.863999 93.2847 0.927999 92.9327 1.024C92.5967 1.12 92.3407 1.272 92.1647 1.48C92.0047 1.672 91.9007 1.944 91.8527 2.296C91.8047 2.632 91.7807 3.072 91.7807 3.616V11.584C91.7807 12.016 91.8607 12.448 92.0207 12.88C92.1967 13.296 92.4607 13.672 92.8127 14.008C93.1807 14.344 93.6447 14.616 94.2047 14.824C94.7807 15.032 95.4687 15.136 96.2687 15.136C97.2287 15.136 98.0207 14.992 98.6447 14.704C99.2847 14.4 99.7807 14.032 100.133 13.6C100.501 13.168 100.757 12.696 100.901 12.184C101.045 11.672 101.117 11.2 101.117 10.768V4.864C101.117 4.064 101.077 3.408 100.997 2.896C100.917 2.384 100.773 1.976 100.565 1.672C100.357 1.368 100.077 1.152 99.7247 1.024C99.3727 0.895999 98.9167 0.831999 98.3567 0.831999V0.256C98.7247 0.287999 99.1807 0.319999 99.7247 0.352C100.285 0.383999 100.869 0.399999 101.477 0.399999C101.973 0.399999 102.461 0.383999 102.941 0.352C103.437 0.319999 103.925 0.287999 104.405 0.256V0.831999C103.877 0.863999 103.461 0.927999 103.157 1.024C102.869 1.12 102.645 1.272 102.485 1.48C102.325 1.672 102.221 1.944 102.173 2.296C102.141 2.632 102.125 3.072 102.125 3.616V10.192C102.125 12.192 101.557 13.744 100.421 14.848C99.3007 15.936 97.7247 16.48 95.6927 16.48C94.4767 16.48 93.4287 16.328 92.5487 16.024C91.6687 15.736 90.9407 15.352 90.3647 14.872C89.7887 14.392 89.3567 13.856 89.0687 13.264C88.7967 12.672 88.6607 12.08 88.6607 11.488V3.616C88.6607 3.184 88.6367 2.808 88.5887 2.488C88.5407 2.152 88.4287 1.872 88.2527 1.648C88.0767 1.408 87.8047 1.224 87.4367 1.096C87.0847 0.951999 86.5967 0.863999 85.9727 0.831999V0.256ZM111.914 21.664C111.21 21.632 110.514 21.608 109.826 21.592C109.138 21.576 108.442 21.568 107.738 21.568C107.226 21.568 106.706 21.576 106.178 21.592C105.666 21.608 105.154 21.632 104.642 21.664V21.184C104.994 21.184 105.274 21.128 105.482 21.016C105.69 20.904 105.842 20.76 105.938 20.584C106.05 20.408 106.114 20.216 106.13 20.008C106.162 19.8 106.178 19.592 106.178 19.384V8.704C106.178 7.904 105.65 7.504 104.594 7.504V7.024C105.378 6.992 106.162 6.936 106.946 6.856C107.73 6.776 108.418 6.656 109.01 6.496V7.864C109.634 7.4 110.21 7.08 110.738 6.904C111.266 6.728 111.802 6.64 112.346 6.64C113.05 6.64 113.698 6.768 114.29 7.024C114.882 7.264 115.394 7.6 115.826 8.032C116.258 8.464 116.594 8.976 116.834 9.568C117.074 10.16 117.194 10.808 117.194 11.512C117.194 12.264 117.066 12.928 116.81 13.504C116.554 14.08 116.202 14.568 115.754 14.968C115.306 15.352 114.778 15.648 114.17 15.856C113.578 16.048 112.938 16.144 112.25 16.144C111.562 16.144 110.962 16.104 110.45 16.024C109.938 15.96 109.458 15.816 109.01 15.592V18.328C109.01 18.936 109.05 19.416 109.13 19.768C109.21 20.12 109.354 20.392 109.562 20.584C109.786 20.776 110.082 20.912 110.45 20.992C110.834 21.072 111.322 21.136 111.914 21.184V21.664ZM109.01 12.832C109.01 13.552 109.194 14.136 109.562 14.584C109.93 15.016 110.578 15.232 111.506 15.232C112.386 15.232 113.01 14.928 113.378 14.32C113.746 13.696 113.93 12.776 113.93 11.56C113.93 10.312 113.746 9.384 113.378 8.776C113.01 8.152 112.386 7.84 111.506 7.84C111.25 7.84 110.986 7.888 110.714 7.984C110.458 8.08 110.218 8.208 109.994 8.368C109.77 8.512 109.57 8.672 109.394 8.848C109.218 9.024 109.09 9.2 109.01 9.376V12.832Z" fill="black"/>
</svg>
