<svg width="17" height="17" viewBox="0 0 17 17" fill="none" xmlns="http://www.w3.org/2000/svg">
<path fill-rule="evenodd" clip-rule="evenodd" d="M3.4 7.33641C4.72222 9.96999 6.98889 12.1333 9.63333 13.5441L11.7111 11.4749C11.9944 11.1927 12.3722 11.0987 12.6556 11.2868C13.6944 11.663 14.8278 11.8511 16.0556 11.8511C16.6222 11.8511 17 12.2273 17 12.7917V15.9896C17 16.5539 16.6222 16.9302 16.0556 16.9302C7.17778 16.9302 0 9.78188 0 0.940565C0 0.376226 0.377778 0 0.944444 0H4.25C4.81667 0 5.19444 0.376226 5.19444 0.940565C5.19444 2.06924 5.38333 3.19792 5.76111 4.3266C5.85556 4.60877 5.76111 4.985 5.57222 5.26717L3.4 7.33641Z" fill="white"/>
</svg>
