<svg width="17" height="14" viewBox="0 0 17 14" fill="none" xmlns="http://www.w3.org/2000/svg">
<path d="M0.334015 9.44612C0.334015 10.4581 0.686682 11.3168 1.39202 12.0221C2.09735 12.7274 2.95602 13.0801 3.96802 13.0801C4.98002 13.0801 5.83868 12.7274 6.54402 12.0221C7.28002 11.3168 7.64801 10.4734 7.64801 9.49212C7.64801 8.48012 7.38735 7.62145 6.86601 6.91612C6.34468 6.18012 5.59335 5.81212 4.61201 5.81212C4.91868 4.67745 5.60868 3.25145 6.68202 1.53412C6.74335 1.47278 6.77402 1.39612 6.77402 1.30412C6.77402 1.21212 6.66668 1.05878 6.45202 0.844118C6.26802 0.660117 6.03801 0.568115 5.76201 0.568115H5.71601C5.40935 0.568115 5.11801 0.706117 4.84201 0.982117C3.86068 1.90212 2.66468 3.46612 1.25401 5.67412C0.671349 6.62478 0.364681 7.85145 0.334015 9.35412V9.44612ZM9.16601 9.44612C9.16601 10.4581 9.51868 11.3168 10.224 12.0221C10.9293 12.7274 11.788 13.0801 12.8 13.0801C13.812 13.0801 14.6707 12.7274 15.376 12.0221C16.112 11.3168 16.48 10.4734 16.48 9.49212C16.48 8.48012 16.2193 7.62145 15.698 6.91612C15.1767 6.18012 14.4253 5.81212 13.444 5.81212C13.7507 4.67745 14.4407 3.25145 15.514 1.53412C15.5753 1.47278 15.606 1.39612 15.606 1.30412C15.606 1.21212 15.4987 1.05878 15.284 0.844118C15.1 0.660117 14.87 0.568115 14.594 0.568115H14.548C14.2414 0.568115 13.95 0.706117 13.674 0.982117C12.6927 1.90212 11.4967 3.46612 10.086 5.67412C9.50335 6.62478 9.19668 7.85145 9.16601 9.35412V9.44612Z" fill="#F2C64D"/>
</svg>
